<?xml version="1.0" encoding="UTF-8" standalone="no"?>
<svg
   width="47.622604"
   height="23.895178"
   viewBox="0 0 47.622604 23.895178"
   fill="none"
   version="1.1"
   id="svg25"
   sodipodi:docname="logo.svg"
   inkscape:version="1.1.1 (3bf5ae0d25, 2021-09-20)"
   xmlns:inkscape="http://www.inkscape.org/namespaces/inkscape"
   xmlns:sodipodi="http://sodipodi.sourceforge.net/DTD/sodipodi-0.dtd"
   xmlns="http://www.w3.org/2000/svg"
   xmlns:svg="http://www.w3.org/2000/svg">
  <sodipodi:namedview
     id="namedview27"
     pagecolor="#505050"
     bordercolor="#eeeeee"
     borderopacity="1"
     inkscape:pageshadow="0"
     inkscape:pageopacity="0"
     inkscape:pagecheckerboard="0"
     showgrid="false"
     inkscape:zoom="10.687414"
     inkscape:cx="25.029441"
     inkscape:cy="17.356865"
     inkscape:window-width="1920"
     inkscape:window-height="1057"
     inkscape:window-x="-8"
     inkscape:window-y="-8"
     inkscape:window-maximized="1"
     inkscape:current-layer="svg25" />
  <path
     fill-rule="evenodd"
     clip-rule="evenodd"
     d="m 47.6226,11.938117 c 0.0019,2.3634 -0.7102,4.6742 -2.0463,6.6402 -1.3361,1.9661 -3.2362,3.4989 -5.4598,4.4047 -2.2236,0.9057 -4.6709,1.1437 -7.0323,0.6837 -2.3615,-0.4599 -4.5309,-1.597 -6.2339,-3.2675 -1.703,-1.6705 -2.863,-3.7994 -3.3334,-6.1173 -0.1347,-0.6636 -0.2111,-1.3342 -0.2299,-2.0046 -0.0879,2.9091 -1.3035,5.681 -3.4059,7.745 -2.1841,2.1442 -5.1463,3.3487 -8.2351,3.3487 H 0 V 0.5048562 h 11.646 c 3.0888,0 6.051,1.204541 8.2351,3.348661 2.1047,2.06625 3.3206,4.84195 3.4062,7.7545998 0.0418,-1.446 0.3511,-2.8801298 0.9205,-4.2304698 0.9209,-2.18369 2.4807,-4.05021 4.4823,-5.36345 C 30.6917,0.7009622 33.0451,0 35.4525,0 c 3.2244,0.0050316 6.3155,1.2641472 8.5964,3.5016072 2.281,2.23745 3.566,5.27097 3.5737,8.4365098 z"
     fill="url(#paint0_linear_61322_3225)"
     id="path2"
     sodipodi:nodetypes="ccccsccssccscccsccc"
     style="fill:url(#paint0_linear_61322_3225)" />
  <defs
     id="defs23">
    <linearGradient
       id="paint0_linear_61322_3225"
       x1="-3.3087899e-06"
       y1="0.63418698"
       x2="50.816101"
       y2="88.268799"
       gradientUnits="userSpaceOnUse"
       gradientTransform="translate(0,-0.0673828)">
      <stop
         stop-color="#FF008E"
         id="stop18" />
      <stop
         offset="1"
         stop-color="#FFCD1E"
         id="stop20" />
    </linearGradient>
  </defs>
</svg>
